<?xml version="1.0" encoding="UTF-8"?>
<!DOCTYPE svg PUBLIC "-//W3C//DTD SVG 1.1//EN" "http://www.w3.org/Graphics/SVG/1.1/DTD/svg11.dtd">
<!-- Creator: CorelDRAW X8 -->
<svg xmlns="http://www.w3.org/2000/svg" xml:space="preserve" width="1.9685in" height="1.9685in" version="1.1" style="shape-rendering:geometricPrecision; text-rendering:geometricPrecision; image-rendering:optimizeQuality; fill-rule:evenodd; clip-rule:evenodd"
viewBox="0 0 1969 1969"
 xmlns:xlink="http://www.w3.org/1999/xlink">
 <defs>
  <style type="text/css">
   <![CDATA[
    .fil0 {fill:#FFE400}
    .fil3 {fill:black;fill-rule:nonzero}
    .fil2 {fill:#1A1A1A;fill-rule:nonzero}
    .fil1 {fill:#666666;fill-rule:nonzero}
   ]]>
  </style>
 </defs>
 <g id="Layer_x0020_1">
  <metadata id="CorelCorpID_0Corel-Layer"/>
  <rect class="fil0" width="1969" height="1969"/>
  <path class="fil1" d="M917 1275c-69,-5 -131,-38 -176,-88 -44,-50 -71,-117 -71,-189 0,-76 30,-145 77,-195 48,-51 114,-82 187,-82 35,0 70,7 102,21 32,14 61,35 86,61l-74 69c-15,-16 -33,-29 -53,-38 -19,-8 -40,-13 -61,-13 -44,0 -85,20 -114,51 -30,32 -49,77 -49,126 0,47 17,90 45,122 28,31 66,51 108,54l-7 101z"/>
  <path class="fil2" d="M990 1193c-5,2 -9,3 -14,4 -4,1 -9,2 -15,3 -55,9 -109,-7 -151,-40 -41,-32 -71,-80 -80,-136l0 0 0 -2c-9,-57 4,-112 34,-155 30,-44 76,-76 132,-85l0 0c24,-3 49,-3 72,2 23,6 45,15 65,28l-54 85c-10,-7 -21,-12 -33,-14l0 0c-12,-3 -23,-3 -34,-1l0 0c-27,4 -50,20 -65,41 -15,23 -23,52 -18,81l0 0 0 3c5,30 21,56 42,73 21,17 48,25 75,21l7 -2c2,0 4,-1 6,-2l31 96z"/>
  <g id="_2374813780848">
   <path class="fil3" d="M938 1029m40 -18c0,-22 -35,-18 -35,-33 0,-10 10,-14 18,-14 4,0 10,2 13,5l2 -3c-4,-4 -10,-5 -15,-5 -15,0 -22,8 -22,17 0,19 35,15 35,33 0,6 -4,15 -17,15 -6,0 -13,-3 -17,-6l-2 3c4,4 12,7 20,7 11,0 20,-6 20,-19z"/>
   <path class="fil3" d="M987 1029m24 -64l0 64 4 0 0 -64 23 0 0 -3 -51 0 0 3 24 0zm41 64m22 1c12,0 22,-10 22,-22l0 -46 -4 0 0 46c0,10 -8,18 -18,18 -10,0 -18,-8 -18,-18l0 -46 -4 0 0 46c0,12 10,22 22,22zm37 -1m46 -34c0,-18 -13,-33 -27,-33l-19 0 0 0 0 67 0 0 4 0 15 0c14,0 27,-15 27,-34zm-4 0c0,17 -11,31 -23,31l-15 0 0 -61 15 0c13,0 23,14 23,30zm20 34m4 -67l-4 0 0 67 4 0 0 -67zm15 67m28 -68c-17,0 -28,16 -28,34 0,19 10,35 28,35 18,0 29,-16 29,-35 0,-18 -11,-34 -29,-34zm0 3c16,0 24,15 24,31 0,17 -8,32 -24,32 -15,0 -24,-15 -24,-32 0,-16 9,-31 24,-31z"/>
   <path class="fil3" d="M1258 1029m40 -18c0,-22 -35,-18 -35,-33 0,-10 10,-14 18,-14 4,0 10,2 13,5l2 -3c-4,-4 -10,-5 -15,-5 -15,0 -22,8 -22,17 0,19 35,15 35,33 0,6 -4,15 -17,15 -6,0 -13,-3 -17,-6l-2 3c4,4 12,7 20,7 11,0 20,-6 20,-19z"/>
  </g>
 </g>
</svg>
