<?xml version="1.0" encoding="UTF-8"?>
<!DOCTYPE svg PUBLIC "-//W3C//DTD SVG 1.1//EN" "http://www.w3.org/Graphics/SVG/1.1/DTD/svg11.dtd">
<!-- Creator: CorelDRAW X8 -->
<svg xmlns="http://www.w3.org/2000/svg" xml:space="preserve" width="1.9685in" height="1.9685in" version="1.1" style="shape-rendering:geometricPrecision; text-rendering:geometricPrecision; image-rendering:optimizeQuality; fill-rule:evenodd; clip-rule:evenodd"
viewBox="0 0 1969 1969"
 xmlns:xlink="http://www.w3.org/1999/xlink">
 <defs>
  <style type="text/css">
   <![CDATA[
    .fil0 {fill:#FFE400}
    .fil1 {fill:black;fill-rule:nonzero}
    .fil3 {fill:#1A1A1A;fill-rule:nonzero}
    .fil2 {fill:#666666;fill-rule:nonzero}
   ]]>
  </style>
 </defs>
 <g id="Layer_x0020_1">
  <metadata id="CorelCorpID_0Corel-Layer"/>
  <rect class="fil0" width="1969" height="1969"/>
  <path class="fil1" d="M909 1128c-13,0 -22,10 -22,23 0,12 9,23 22,23 5,0 10,-2 13,-5l-2 -4c-3,3 -7,5 -11,5 -10,0 -17,-9 -17,-19 0,-10 7,-19 17,-19 4,0 8,1 11,4l2 -4c-3,-3 -8,-4 -13,-4zm53 13c0,-7 -5,-13 -12,-13l-18 0 0 45 4 0 0 -20 11 0 12 20 5 0 -12 -20c6,-1 10,-7 10,-12zm-5 0c0,4 -3,8 -7,8l-14 0 0 -17 14 0c4,0 7,4 7,9zm22 6l0 -15 23 0 0 -4 -27 0 0 45 27 0 0 -4 -23 0 0 -18 19 0 0 -4 -19 0zm47 -19l-15 45 5 0 4 -13 18 0 4 13 5 0 -15 -45 -6 0zm3 6l8 22 -16 0 8 -22zm33 -2l0 41 4 0 0 -41 15 0 0 -4 -34 0 0 4 15 0zm33 -4l-4 0 0 45 4 0 0 -45zm40 0l-13 38 -13 -38 -5 0 16 45 5 0 15 -45 -5 0zm21 19l0 -15 23 0 0 -4 -28 0 0 45 28 0 0 -4 -23 0 0 -18 18 0 0 -4 -18 0zm80 13c0,-14 -23,-11 -23,-20 0,-6 6,-8 11,-8 3,0 6,1 9,3l1 -4c-2,-2 -7,-3 -10,-3 -8,0 -15,3 -15,12 0,13 22,10 22,20 0,6 -5,10 -10,10 -4,0 -9,-2 -11,-5l-3 4c4,3 10,5 14,5 8,0 15,-5 15,-14zm19 -28l0 41 5 0 0 -41 15 0 0 -4 -34 0 0 4 14 0zm44 42c9,0 15,-7 15,-16l0 -30 -4 0 0 30c0,6 -5,11 -11,11 -6,0 -11,-5 -11,-11l0 -30 -4 0 0 30c0,9 6,16 15,16zm58 -23c0,-11 -7,-23 -19,-23l-13 0 0 45 13 0c12,0 19,-12 19,-22zm-5 0c0,8 -5,17 -14,18 -1,0 -2,0 -3,0l-6 0 0 -37 7 0 2 0c10,1 14,10 14,19l0 0zm20 -23l-5 0 0 45 5 0 0 -45zm29 0c-12,0 -19,11 -19,23 0,11 6,23 19,23 13,0 19,-12 19,-23 0,-12 -6,-23 -19,-23zm0 4c11,0 15,10 15,19 0,9 -4,19 -15,19 -10,0 -14,-10 -14,-19 0,-9 4,-19 14,-19zm54 28c0,-14 -22,-11 -22,-20 0,-6 5,-8 10,-8 3,0 7,1 9,3l2 -4c-3,-2 -7,-3 -11,-3 -8,0 -15,3 -15,12 0,13 22,10 22,20 0,6 -4,10 -10,10 -3,0 -8,-2 -11,-5l-2 4c3,3 9,5 13,5 9,0 15,-5 15,-14z"/>
  <path class="fil1" d="M851 893c-34,0 -85,21 -85,91 0,70 51,91 85,91 36,0 59,-19 59,-19l-19 -41c0,0 -15,13 -35,13 -26,0 -41,-16 -41,-44 0,-27 15,-44 41,-44 20,0 35,13 35,13l19 -40c0,0 -23,-20 -59,-20zm143 63l0 -59 -48 0 0 175 48 0 0 -70 53 0 0 70 48 0 0 -175 -48 0 0 59 -53 0zm278 -2c0,-34 -24,-57 -57,-57l-81 0 0 175 47 0 0 -62 18 0 30 62 56 0 -39 -70c16,-10 26,-27 26,-48zm-47 0c0,10 -6,17 -17,17l-27 0 0 -34 27 0c9,0 17,7 17,17zm140 -57l-48 0 0 175 48 0 0 -175zm126 -3c-34,0 -85,21 -85,91 0,70 50,90 85,90 36,0 85,-20 85,-90 0,-71 -51,-91 -85,-91zm0 42c26,0 33,26 33,49 0,30 -10,49 -33,49 -22,0 -33,-19 -33,-49 0,-23 8,-49 33,-49z"/>
  <path class="fil2" d="M574 1268c-70,-4 -132,-37 -176,-88 -44,-50 -71,-116 -71,-189 0,-75 29,-144 77,-195 47,-50 114,-82 187,-82 35,0 70,8 102,22 32,14 61,34 85,60l-73 69c-15,-16 -33,-29 -53,-37 -19,-9 -40,-13 -61,-13 -44,0 -85,19 -114,50 -30,32 -49,77 -49,126 0,48 17,91 45,123 28,31 65,51 108,54l-7 100z"/>
  <path class="fil3" d="M647 1187c-5,1 -10,2 -15,4 -3,0 -8,1 -14,2 -56,9 -109,-7 -152,-40 -40,-32 -70,-79 -79,-135l0 0 -1 -3c-8,-57 5,-112 35,-155 30,-44 76,-75 132,-84l0 0c24,-4 48,-3 71,2 23,5 46,14 66,28l-54 84c-11,-6 -22,-11 -33,-14l0 0c-12,-2 -23,-3 -34,-1l-1 0c-26,4 -49,20 -64,42 -15,22 -23,51 -19,81l0 0 1 2c4,31 20,57 42,74 21,16 48,24 75,20l6 -1c2,-1 5,-2 7,-2l31 96z"/>
 </g>
</svg>
