<?xml version="1.0" encoding="UTF-8"?>
<svg width="1600px" height="1600px" viewBox="0 0 1600 1600" version="1.1" xmlns="http://www.w3.org/2000/svg" xmlns:xlink="http://www.w3.org/1999/xlink">
    <!-- Generator: Sketch 49.2 (51160) - http://www.bohemiancoding.com/sketch -->
    <title>Group 3</title>
    <desc>Created with Sketch.</desc>
    <defs></defs>
    <g id="Page-1" stroke="none" stroke-width="1" fill="none" fill-rule="evenodd">
        <g id="Group-3">
            <rect id="Rectangle-path" fill="#FFE400" x="0" y="0" width="1600" height="1600"></rect>
            <g id="Group-2" transform="translate(300.000000, 263.000000)" fill-rule="nonzero">
                <path d="M435.528761,976 C313.862832,967.191336 204.539823,909.054152 125.192478,820.967509 C47.6084071,732.880866 0,614.844765 0,488 C0,354.108303 52.8982301,232.548736 135.772124,144.462094 C220.409292,54.6137184 336.785398,0 465.504425,0 C527.219027,0 588.933628,12.33213 645.358407,36.9963899 C701.783186,61.6606498 752.918142,98.6570397 797,144.462094 L666.517699,266.021661 C640.068584,237.833935 608.329646,214.931408 573.064159,199.075812 C539.561947,184.981949 502.533186,176.173285 465.504425,176.173285 C387.920354,176.173285 315.626106,211.407942 264.49115,266.021661 C211.59292,322.397112 178.090708,401.67509 178.090708,488 C178.090708,570.801444 208.066372,646.555957 257.438053,702.931408 C306.809735,757.545126 373.814159,792.779783 447.871681,798.064982 L435.528761,976 Z" id="Shape" fill="#666666"></path>
                <path d="M564.21005,843.286945 C555.397266,846.813354 548.347038,848.576558 539.534253,850.339763 C532.484025,852.102967 523.67124,853.866172 513.095898,855.629376 C416.155265,871.498215 320.977189,843.286945 246.949796,785.1012 C174.684961,728.67866 121.808252,644.044849 105.945239,545.305403 L105.945239,541.778994 C90.0822262,441.276344 112.995467,344.300103 165.872176,268.482314 C218.748885,190.901321 299.826505,134.47878 398.529695,118.609941 C440.831063,113.320328 484.894987,113.320328 525.433797,122.13635 C565.972607,132.715576 604.748861,148.584415 640,171.506072 L544.821924,321.378446 C527.196354,309.036015 507.808227,300.219993 486.657544,296.693584 C465.50686,291.403971 446.118734,291.403971 426.730607,294.93038 C379.141569,301.983197 338.602759,330.194468 312.164404,367.22176 C285.72605,407.775461 271.625594,458.908388 280.438379,510.041315 L280.438379,515.330929 C289.251163,568.22706 317.452075,614.070374 354.465771,644.044849 C391.479468,674.019324 439.068506,688.124959 486.657544,681.072141 L498.995443,677.545732 C502.520557,677.545732 506.04567,675.782528 509.570784,674.019324 L564.21005,843.286945 Z" id="Shape" fill="#1A1A1A"></path>
                <g id="Group" transform="translate(471.000000, 427.000000)" fill="#000000">
                    <path d="M70.3767796,88.1592051 C70.3767796,49.3691549 8.79709744,56.4218913 8.79709744,29.9741297 C8.79709744,12.3422887 26.3912923,5.28955231 40.4666482,5.28955231 C47.5043262,5.28955231 58.0608431,8.81592051 63.3391016,14.1054728 L66.8579406,8.81592051 C59.8202626,1.7631841 49.2637457,0 40.4666482,0 C14.0753559,0 1.75941949,14.1054728 1.75941949,29.9741297 C1.75941949,63.4746277 63.3391016,56.4218913 63.3391016,88.1592051 C63.3391016,98.7383097 56.3014236,114.606967 33.4289703,114.606967 C22.8724534,114.606967 10.5565169,109.317414 3.51883898,104.027862 L0,109.317414 C7.03767796,116.370151 21.1130339,121.659703 35.1883898,121.659703 C54.5420042,121.659703 70.3767796,111.080598 70.3767796,88.1592051 Z" id="Shape"></path>
                    <path d="M128.437623,7.05273641 L128.437623,119.896519 L135.475301,119.896519 L135.475301,7.05273641 L175.941949,7.05273641 L175.941949,1.7631841 L86.211555,1.7631841 L86.211555,7.05273641 L128.437623,7.05273641 Z M239.28105,121.659703 C260.394084,121.659703 277.988279,104.027862 277.988279,82.8696528 L277.988279,1.7631841 L270.950601,1.7631841 L270.950601,82.8696528 C270.950601,100.501494 256.875245,114.606967 239.28105,114.606967 C221.686856,114.606967 207.6115,100.501494 207.6115,82.8696528 L207.6115,1.7631841 L200.573822,1.7631841 L200.573822,82.8696528 C200.573822,104.027862 218.168017,121.659703 239.28105,121.659703 Z M385.312868,59.9482595 C385.312868,28.2109456 362.440415,1.7631841 337.808542,1.7631841 L304.379572,1.7631841 L304.379572,119.896519 L311.41725,119.896519 L337.808542,119.896519 C362.440415,119.896519 385.312868,93.4487574 385.312868,59.9482595 Z M378.27519,59.9482595 C378.27519,89.9223892 358.921576,114.606967 337.808542,114.606967 L311.41725,114.606967 L311.41725,7.05273641 L337.808542,7.05273641 C360.680995,7.05273641 378.27519,31.7373138 378.27519,59.9482595 Z M420.501258,1.7631841 L413.46358,1.7631841 L413.46358,119.896519 L420.501258,119.896519 L420.501258,1.7631841 Z M496.156296,0 C466.246165,0 446.89255,28.2109456 446.89255,59.9482595 C446.89255,93.4487574 464.486745,121.659703 496.156296,121.659703 C527.825847,121.659703 547.179461,93.4487574 547.179461,59.9482595 C547.179461,28.2109456 527.825847,0 496.156296,0 Z M496.156296,5.28955231 C524.307008,5.28955231 538.382364,31.7373138 538.382364,59.9482595 C538.382364,89.9223892 524.307008,116.370151 496.156296,116.370151 C469.765004,116.370151 453.930228,89.9223892 453.930228,59.9482595 C453.930228,31.7373138 469.765004,5.28955231 496.156296,5.28955231 Z" id="Shape"></path>
                    <path d="M633.391016,88.1592051 C633.391016,49.3691549 571.811334,56.4218913 571.811334,29.9741297 C571.811334,12.3422887 589.405529,5.28955231 603.480885,5.28955231 C610.518563,5.28955231 621.07508,8.81592051 626.353338,14.1054728 L629.872177,8.81592051 C622.834499,1.7631841 612.277982,0 603.480885,0 C577.089592,0 564.773656,14.1054728 564.773656,29.9741297 C564.773656,63.4746277 626.353338,56.4218913 626.353338,88.1592051 C626.353338,98.7383097 619.31566,114.606967 596.443207,114.606967 C585.88669,114.606967 573.570753,109.317414 566.533075,104.027862 L563.014236,109.317414 C570.051914,116.370151 584.12727,121.659703 598.202626,121.659703 C617.556241,121.659703 633.391016,111.080598 633.391016,88.1592051 Z" id="Shape"></path>
                </g>
            </g>
        </g>
    </g>
</svg>